HIERARCHY
ROOT Hips
{
	OFFSET -14.64140 90.27770 -84.91600
	CHANNELS 6 Xposition Yposition Zposition Zrotation Xrotation Yrotation
	JOINT Spine
	{
		OFFSET 0.00000 13.20850 -1.60436
		CHANNELS 3 Zrotation Xrotation Yrotation
		JOINT Spine1
		{
			OFFSET 0.00000 8.61716 0.00000
			CHANNELS 3 Zrotation Xrotation Yrotation
			JOINT Spine2
			{
				OFFSET 0.00000 8.61717 0.00000
				CHANNELS 3 Zrotation Xrotation Yrotation
				JOINT Spine3
				{
					OFFSET 0.00000 8.61717 0.00000
					CHANNELS 3 Zrotation Xrotation Yrotation
					JOINT Neck
					{
						OFFSET 0.00000 11.07920 1.10792
						CHANNELS 3 Zrotation Xrotation Yrotation
						JOINT Neck1
						{
							OFFSET 0.00000 7.08032 0.00000
							CHANNELS 3 Zrotation Xrotation Yrotation
							JOINT Head
							{
								OFFSET 0.00000 7.08031 0.00000
								CHANNELS 3 Zrotation Xrotation Yrotation
								End site
								{
									OFFSET 0.00000 0.00000 0.00000
								}
							}
						}
					}
					JOINT RightShoulder
					{
						OFFSET -0.01000 7.91373 5.19711
						CHANNELS 3 Zrotation Xrotation Yrotation
						JOINT RightArm
						{
							OFFSET -18.41580 0.00000 0.00000
							CHANNELS 3 Zrotation Xrotation Yrotation
							JOINT RightForeArm
							{
								OFFSET -29.11090 0.00000 0.00000
								CHANNELS 3 Zrotation Xrotation Yrotation
								JOINT RightHand
								{
									OFFSET -24.65040 0.00000 0.00000
									CHANNELS 3 Zrotation Xrotation Yrotation
									JOINT RightHandThumb1
									{
										OFFSET -5.35114 -0.85590 3.97906
										CHANNELS 3 Zrotation Xrotation Yrotation
										JOINT RightHandThumb2
										{
											OFFSET -4.52789 0.00000 0.00000
											CHANNELS 3 Zrotation Xrotation Yrotation
											JOINT RightHandThumb3
											{
												OFFSET -2.46976 0.00000 0.00000
												CHANNELS 3 Zrotation Xrotation Yrotation
												End site
												{
													OFFSET 0.00000 0.00000 0.00000
												}
											}
										}
									}
									JOINT RightHandIndex1
									{
										OFFSET -14.26970 0.00000 2.88139
										CHANNELS 3 Zrotation Xrotation Yrotation
										JOINT RightHandIndex2
										{
											OFFSET -5.48836 0.00000 0.00000
											CHANNELS 3 Zrotation Xrotation Yrotation
											JOINT RightHandIndex3
											{
												OFFSET -3.01859 0.00000 0.00000
												CHANNELS 3 Zrotation Xrotation Yrotation
												End site
												{
													OFFSET 0.00000 0.00000 0.00000
												}
											}
										}
									}
									JOINT RightHandMiddle1
									{
										OFFSET -14.26970 0.00000 -0.09147
										CHANNELS 3 Zrotation Xrotation Yrotation
										JOINT RightHandMiddle2
										{
											OFFSET -6.17441 0.00000 0.00000
											CHANNELS 3 Zrotation Xrotation Yrotation
											JOINT RightHandMiddle3
											{
												OFFSET -3.56743 0.00000 0.00000
												CHANNELS 3 Zrotation Xrotation Yrotation
												End site
												{
													OFFSET 0.00000 0.00000 0.00000
												}
											}
										}
									}
									JOINT RightHandRing1
									{
										OFFSET -12.69180 0.00000 -3.06433
										CHANNELS 3 Zrotation Xrotation Yrotation
										JOINT RightHandRing2
										{
											OFFSET -5.62556 0.00000 0.00000
											CHANNELS 3 Zrotation Xrotation Yrotation
											JOINT RightHandRing3
											{
												OFFSET -3.56744 0.00000 0.00000
												CHANNELS 3 Zrotation Xrotation Yrotation
												End site
												{
													OFFSET 0.00000 0.00000 0.00000
												}
											}
										}
									}
									JOINT RightHandPinky1
									{
										OFFSET -11.11390 0.00000 -6.03719
										CHANNELS 3 Zrotation Xrotation Yrotation
										JOINT RightHandPinky2
										{
											OFFSET -4.52789 0.00000 0.00000
											CHANNELS 3 Zrotation Xrotation Yrotation
											JOINT RightHandPinky3
											{
												OFFSET -2.46976 0.00000 0.00000
												CHANNELS 3 Zrotation Xrotation Yrotation
												End site
												{
													OFFSET 0.00000 0.00000 0.00000
												}
											}
										}
									}
								}
							}
						}
					}
					JOINT LeftShoulder
					{
						OFFSET 0.01000 7.91373 5.19711
						CHANNELS 3 Zrotation Xrotation Yrotation
						JOINT LeftArm
						{
							OFFSET 18.41580 0.00000 0.00000
							CHANNELS 3 Zrotation Xrotation Yrotation
							JOINT LeftForeArm
							{
								OFFSET 29.11090 0.00000 0.00000
								CHANNELS 3 Zrotation Xrotation Yrotation
								JOINT LeftHand
								{
									OFFSET 24.65040 0.00000 0.00000
									CHANNELS 3 Zrotation Xrotation Yrotation
									JOINT LeftHandThumb1
									{
										OFFSET 5.35114 -0.85590 3.97906
										CHANNELS 3 Zrotation Xrotation Yrotation
										JOINT LeftHandThumb2
										{
											OFFSET 4.52789 0.00000 0.00000
											CHANNELS 3 Zrotation Xrotation Yrotation
											JOINT LeftHandThumb3
											{
												OFFSET 2.46977 0.00000 0.00000
												CHANNELS 3 Zrotation Xrotation Yrotation
												End site
												{
													OFFSET 0.00000 0.00000 0.00000
												}
											}
										}
									}
									JOINT LeftHandIndex1
									{
										OFFSET 14.26970 0.00000 2.88139
										CHANNELS 3 Zrotation Xrotation Yrotation
										JOINT LeftHandIndex2
										{
											OFFSET 5.48836 0.00000 0.00000
											CHANNELS 3 Zrotation Xrotation Yrotation
											JOINT LeftHandIndex3
											{
												OFFSET 3.01859 0.00000 0.00000
												CHANNELS 3 Zrotation Xrotation Yrotation
												End site
												{
													OFFSET 0.00000 0.00000 0.00000
												}
											}
										}
									}
									JOINT LeftHandMiddle1
									{
										OFFSET 14.26970 0.00000 -0.09147
										CHANNELS 3 Zrotation Xrotation Yrotation
										JOINT LeftHandMiddle2
										{
											OFFSET 6.17440 0.00000 0.00000
											CHANNELS 3 Zrotation Xrotation Yrotation
											JOINT LeftHandMiddle3
											{
												OFFSET 3.56744 0.00000 0.00000
												CHANNELS 3 Zrotation Xrotation Yrotation
												End site
												{
													OFFSET 0.00000 0.00000 0.00000
												}
											}
										}
									}
									JOINT LeftHandRing1
									{
										OFFSET 12.69180 0.00000 -3.06433
										CHANNELS 3 Zrotation Xrotation Yrotation
										JOINT LeftHandRing2
										{
											OFFSET 5.62556 0.00000 0.00000
											CHANNELS 3 Zrotation Xrotation Yrotation
											JOINT LeftHandRing3
											{
												OFFSET 3.56744 0.00000 0.00000
												CHANNELS 3 Zrotation Xrotation Yrotation
												End site
												{
													OFFSET 0.00000 0.00000 0.00000
												}
											}
										}
									}
									JOINT LeftHandPinky1
									{
										OFFSET 11.11390 0.00000 -6.03719
										CHANNELS 3 Zrotation Xrotation Yrotation
										JOINT LeftHandPinky2
										{
											OFFSET 4.52789 0.00000 0.00000
											CHANNELS 3 Zrotation Xrotation Yrotation
											JOINT LeftHandPinky3
											{
												OFFSET 2.46976 0.00000 0.00000
												CHANNELS 3 Zrotation Xrotation Yrotation
												End site
												{
													OFFSET 0.00000 0.00000 0.00000
												}
											}
										}
									}
								}
							}
						}
					}
					JOINT pCube4
					{
						OFFSET 0.00000 10.91090 1.10792
						CHANNELS 3 Zrotation Xrotation Yrotation
						End site
						{
							OFFSET 0.00000 0.00000 0.00000
						}
					}
				}
			}
		}
	}
	JOINT RightUpLeg
	{
		OFFSET -9.98441 0.00000 0.00000
		CHANNELS 3 Zrotation Xrotation Yrotation
		JOINT RightLeg
		{
			OFFSET 0.00000 -42.11790 0.00000
			CHANNELS 3 Zrotation Xrotation Yrotation
			JOINT RightFoot
			{
				OFFSET 0.00000 -45.00020 -0.00001
				CHANNELS 3 Zrotation Xrotation Yrotation
				JOINT RightForeFoot
				{
					OFFSET 0.00000 -3.74820 0.00000
					CHANNELS 3 Zrotation Xrotation Yrotation
					JOINT RightToeBase
					{
						OFFSET 0.00000 0.06325 14.43120
						CHANNELS 3 Zrotation Xrotation Yrotation
						End site
						{
							OFFSET 0.00000 0.00000 0.00000
						}
					}
				}
			}
		}
	}
	JOINT LeftUpLeg
	{
		OFFSET 9.98441 0.00000 0.00000
		CHANNELS 3 Zrotation Xrotation Yrotation
		JOINT LeftLeg
		{
			OFFSET 0.00000 -42.11800 0.00000
			CHANNELS 3 Zrotation Xrotation Yrotation
			JOINT LeftFoot
			{
				OFFSET 0.00000 -45.00070 0.00000
				CHANNELS 3 Zrotation Xrotation Yrotation
				JOINT LeftForeFoot
				{
					OFFSET 0.00000 -3.74824 0.00000
					CHANNELS 3 Zrotation Xrotation Yrotation
					JOINT LeftToeBase
					{
						OFFSET 0.00000 0.06325 14.43110
						CHANNELS 3 Zrotation Xrotation Yrotation
						End site
						{
							OFFSET 0.00000 0.00000 0.00000
						}
					}
				}
			}
		}
	}
}
MOTION
Frames: 4
Frame Time: 0.050000
0.0028678912475153234 -0.019555416992687907 -0.010947487931788166 -0.006646290568830428 -0.03747582509318362 0.041607212069306204 -4.678206414021266 7.457082807934732 -0.4759759311233843 -0.7529609353994993 2.8682539280698847 0.3507517915334491 -0.9029778547988359 -0.004662150770600882 -1.309679984825104 -1.3009615191865376 0.30183730180146345 -0.9708392809153304 -1.0039516252793805 8.686511358203832 2.430865420092595 -0.1370912703047294 -0.853493082236816 2.2804762168386676 -0.7482366372882229 -14.78956139913108 0.26280504983986974 2.979430309178174 0.14847473061981203 -8.167428494983678 68.62115041586829 4.246329838491534 42.06525403173397 45.708856884062385 13.570383392013317 101.86307072178296 28.98295771184967 0.47524890332870545 -15.232500863516972 4.555729282882009 -0.14265625341505586 -1.5758484035393716 -0.025352653012442553 0.031553458481643294 -56.214554233462934 0.007612925559658866 -0.01405680158673197 -56.27971814784795 -38.744426885530366 -0.008845156600789791 -0.02981686122812289 0.04074143672050638 -0.012601616626926151 -0.008440182260248785 0.03078368672365188 -0.025613888260227032 -0.03137892796565519 -36.66427251169803 -0.03753509426204796 -0.010201713482286708 -0.03280453788772961 -0.025984741499744845 0.02240494289639826 -0.008326122807854924 0.010349953831523729 0.02573447460027259 -19.766204764262827 0.03320189329421349 0.04048369322045259 -0.032403809300935366 -0.04787794793229949 -0.00653870956998049 0.007181278147378745 0.023536304043115252 0.020272277237828974 24.07358241260115 -0.04019158312045279 -0.020051913414810454 28.832860268408723 0.026090414992148397 -0.001257207343605205 28.846310523581074 0.04066404917730876 -0.016197331063019814 0.22474757168535733 0.5616236818614005 7.601309567462584 -62.934775927462894 18.86728423655177 -39.60162735113864 -57.61609632299956 16.060947644795473 -109.97973018823711 -25.753426677082693 -7.392675338241345 5.28163911660925 -0.4620010616913538 0.04655638745335962 -8.161492177822806 -0.041332806110927454 0.014727637271937665 44.603602147565134 0.048066624056284944 0.03647545204907329 44.546553431105224 12.413755761955244 0.04154359090120279 0.03732093357485573 -0.026918145764422367 -0.004518034985016372 -0.036360039163500966 -0.04133394418015936 0.02485487110798916 0.03374129308806365 11.123543704855923 0.007078679339969403 0.022993927784655414 0.015296289159361737 -0.047903093881272354 -0.04959997847135499 -0.015418500183966722 -0.00887266152333311 0.037776229120468324 4.745759741414735 -0.02043300184684122 -0.02259440635033192 0.020850577346853118 -0.004782141137675129 0.026192683186913233 -0.0113053006578963 -0.006389667375837002 -0.0163771317472659 -5.615124027036336 -0.007057845788374911 0.01819099126578096 -6.744256081162975 0.002176434317567669 -0.024691611763851224 -6.682286639359138 -0.03246209791800962 0.008933166281985339 0.014221129904714839 -0.04348397195956491 0.04535415180239251 8.045013095922222 3.4475305351266132 -19.23717394942965 0.011078356177762991 10.39710459319472 -0.012646293745422515 -5.626800077220081 -15.624517417579021 3.218808567669511 -0.0017282944160226246 0.000935647525525559 -0.0456011848314349 0.018625864415221346 4.720486272573008 -0.034672086075375766 12.490651132752024 -8.227977308525487 6.887481938550685 0.032300598475300334 46.339909824788144 -0.041017197267237855 -4.296773694817552 -14.760671136548625 -3.8692808992855414 0.01513843334627504 -0.023555966485896945 -0.01627694511950925 -0.045296671909718825 -10.766065798570006 0.02519285682325419 
-0.03235644125030317 -0.0486192078502881 0.020625952057832922 0.03512182151015459 0.0019540681474441283 0.027604103384436442 -4.878933625837791 7.452385008074885 -0.5007265762398181 -0.7418486963535456 2.8837257057411723 0.36286593373811055 -0.9619520360122613 -0.04685338236520496 -1.2662005533784944 -1.337231963876249 0.29118164091135407 -1.0062842160241703 -0.9416154921173677 8.919779497007374 2.395197733934068 -0.16738491662582922 -0.7824432841942452 2.381504937540262 -0.659867821349112 -14.704782248117212 0.31334824042366405 2.4092023457773473 0.2547701122962751 -8.148925462145156 67.77689821706566 0.8746963248780627 44.92934077104791 43.614152053164695 12.807174843002114 102.08724774062513 29.380467199635152 0.50870463149151 -15.06043082076184 4.566835328948778 -0.14746770870147824 -1.5756443623530139 -0.0038175437065053434 0.0265258865764068 -56.261912740782186 -0.03517548262762322 0.012493883748997615 -56.25940108953566 -38.75638077546547 -0.01989862395476879 0.0033031476324823904 -0.034991317363167025 0.03001813733242744 -0.008568243845939242 0.033169687755032755 0.012246852938957015 0.049593551203108655 -36.728351812944844 -0.004180278279093667 0.032906462793014915 -0.0036729157818007705 0.043022656763228265 -0.00620251146847653 0.022304796236190534 0.024218777059627477 -0.03660136302373194 -19.791018762473893 0.031198838118305483 -0.0067603447167504695 -0.024714449456888558 0.0418121724224545 0.007888942568849998 -0.013407027940367187 0.011775609885192625 -0.03421468035954759 24.021835409789972 0.004958667827922051 -0.007764497501168543 28.81675776135922 0.014173668033430868 0.00039749308956806256 28.86716941155281 0.0232041982422545 0.032339723661897336 0.4949275241199848 0.5940444810958007 7.554993857944352 -62.224716789010635 18.444628250377306 -41.333099264135456 -51.468082621873364 14.93886401197834 -108.13635879735686 -24.702737316068813 -6.750195451045104 4.615304640375408 -0.49932463295804286 0.05562692170659935 -8.123416474494746 -0.009190329158921866 -0.037427953835283426 44.58502605965977 -0.027740706663199034 0.03550747723809213 44.54194727334625 12.465347753048187 -0.037603405443132364 -0.019336553228514776 -0.0366215712185102 0.03724084783095651 -0.0409137034297844 0.03197465210870205 0.03010827540245584 -0.036906579872607474 11.119265725853165 0.020398311917507916 -0.006161299023417611 -0.049814551571110255 0.010022138439498857 -0.019022239983601554 0.04280717533893048 -0.03772154400190341 -0.033971968759805196 4.801197130020749 0.0022476418370157326 -0.018463025487219037 0.04557807643622407 -0.009095130033131988 -0.003026985684619425 -0.016010405539401164 0.040042716227305715 0.012910647428048925 -5.595907047117783 0.035465390853578395 0.020584151017348763 -6.723725302088921 -0.0013844925796881844 -0.016093970236780192 -6.727722607954898 0.030427257015095556 0.04069937211321966 -0.03784479641366318 -0.03868728247709532 -0.008570513216403054 8.040793283314338 3.5117856268496195 -19.23976238839504 0.047182527602260355 10.382238006590232 0.044681660660216324 -5.572827158121498 -15.629007643589276 3.15112972949375 -0.029030757712886414 0.011370888795424337 -0.027083053656764996 0.020598366721657192 4.737403811445928 0.024499944064205314 12.475688725310786 -8.20171020280999 6.8929234841706055 0.0215119601374038 46.37980447773001 0.035982179848557366 -4.344860309016301 -14.734288472709983 -3.849901169819658 0.018304966645630468 -0.04904976776531199 -0.028336522851652883 0.04756426913825753 -10.696036026616037 0.0014146053391750635 
-0.010426682463264149 -0.010132955194538874 0.042569275169738366 0.01800722860485859 -0.03210732467540888 -0.018478939758935376 -4.946416558318685 7.582182882466928 -0.4346287835565096 -0.732100886422777 2.886408979936075 0.4336878434337863 -1.002675001682666 -0.10675627628234763 -1.3443087591939296 -1.3657601134332267 0.29544917866267445 -1.0065279082272247 -0.813698749049798 8.869317736379031 2.260542993057364 -0.10764523180483114 -0.7359046278171811 1.9513022222986538 -0.6009903254048785 -14.583512913009832 0.2105933225438149 2.3501091777792174 0.3320014465955782 -8.230178255322523 66.57709187746254 -1.852474817338104 46.087378920261784 41.38770898934666 12.39700464492076 102.75146762328167 29.902635188884233 0.5124335049050732 -15.043827486365972 4.556038680958962 -0.08915741240496752 -1.5876435677229175 -0.021399057059267583 0.02609306872766283 -56.19941123272444 0.00494379336303578 -0.021824682815587672 -56.26400115897705 -38.77246635736721 -0.004936167011088288 0.011433315429960844 0.03201219217723964 0.03246450364011956 0.04834387606604412 -0.04753854238262028 0.0403096315634372 0.025791812474551132 -36.66141703551446 0.03984240624118455 -0.044836132197201325 -0.006779081995574091 0.026306804181883768 0.028760139441095088 -0.014012379787631571 -0.000621306839546208 0.04549706349149918 -19.788683276192675 -0.007657356651827651 0.029923865116761126 -0.03750015213190185 -0.029255374423687905 -0.016103414730845422 -0.011592977063712824 0.009034364204609829 -0.002850164543829308 24.08823405375033 -0.003231169387706986 0.020165466931071907 28.859602940340487 0.03505027097221597 0.035520959737765145 28.864670582689694 0.006183849461380515 -0.0037144523632188942 0.2573073927791315 0.5215461532501137 7.595777606163531 -61.096022678576524 18.951371338907922 -41.3346861180379 -43.980020737366225 13.645487235364731 -106.55900428433617 -24.014365654268964 -6.256790076156351 4.150656407003468 -0.4427112106215466 0.09069098366772561 -8.081978622255894 -0.005154917935382819 0.04050375568765582 44.524095237710064 0.04142560500585384 -0.04298885061802117 44.58307882349194 12.452312594710223 -0.0008148122814549448 0.0035246628205471598 0.010333251115678245 0.023347425041515886 0.012615345837591413 -0.04622275210821017 0.008547115513574854 0.014341717884061366 11.09144108281836 -0.01697558728022703 0.02159209116577814 0.010141424619188596 0.03145390153611889 0.011483426394713522 -0.0031575780717773582 -0.021097804338519797 0.04556688371236803 4.743699505907174 0.027441987609203636 -0.016031490173916915 0.03389391142971614 0.025574002435319057 0.04886958861124505 0.04862139654763932 -0.01956798055094535 0.03275651291560493 -5.57026009028783 -0.03266461835302702 -0.01184100294922141 -6.708030770766257 -0.039605046879910726 0.02575737185854897 -6.704025770485553 0.004377185521763958 -0.02353892499769354 -0.03843865818998139 -0.030319395445188257 -0.04332395582353593 8.084788007328754 3.5302971141984916 -19.181943511854982 0.04939016780516058 10.37850186302347 -0.01533872745066106 -5.5766516353095374 -15.651861127356364 3.217177033097428 -0.02420485667846844 -0.010761000604069842 0.01785875480337224 -0.014559049785132686 4.716755390697949 0.044160688656026396 12.472678445949066 -8.223394293218732 6.840972827443097 -0.04653780846616711 46.36461880713584 0.0034223302386499218 -4.336671618479362 -14.72610735573747 -3.8139582557816802 0.0033084915030729195 0.046890474798911036 -0.009340123117080002 -0.008242010475418357 -10.783496357165818 0.03657965901985058 
-0.03788474279059162 0.009349146944904156 0.031421127424634696 -0.005767087417468567 0.0435792885651734 -0.01929601010249059 -5.016589712433007 7.591403124912059 -0.49837018755444046 -0.6912374772782516 2.8597981559935497 0.38798131694668525 -1.0170543857223906 -0.06249218245284877 -1.3402797140537888 -1.3007678549608783 0.2781274684218344 -1.0534975017119093 -0.701876322923704 8.942234179436126 1.8750051111342327 -0.06385790272013254 -0.5891080649307411 1.1849615773618116 -0.5080490738433872 -14.354371570776644 0.17477616458936338 2.23306963250522 0.39277993869417355 -8.360922273097144 65.53713238800354 -3.956600287788216 46.34161870820188 37.550155735383875 11.360323068173116 103.64346618928668 29.785420127036723 0.42517540759766326 -14.580717790537044 4.505954294402582 -0.12010333670046253 -1.5748779860003754 0.002119413668931192 0.005660697919938078 -56.227112584560295 -0.016871904890461604 0.04247761468854569 -56.21381015187147 -38.746438313261116 0.01685516687567898 -0.0478876206652594 -0.024629336988444314 -0.045705651797843624 -0.014899346399907396 0.02078519708370422 0.011341775236825145 0.014100660794876693 -36.68416780395561 -0.014099540067598929 -0.005121980603616913 0.03914371875466378 0.013924219056040075 0.008735472815784328 -0.04650287808614677 0.04441596892878427 0.03356171089980028 -19.773986720580545 0.041963228162059836 0.04425966439483318 -0.04402273862259153 -0.03430175931908129 -0.001733945149944661 -0.03151315282345805 -0.0023210371595506433 0.004676617360935457 24.041776511232392 0.02135896346993602 -0.007834405706733655 28.868666599533007 0.01133932371240199 -0.009799259903650883 28.8578800988914 -0.002047140266714099 0.04469262820618989 -0.07560121578178337 0.4767666707358484 7.6376663300926 -59.92594002740478 20.277935745198434 -41.00150439057499 -32.91344809863384 10.659926624319908 -104.62200172815012 -22.25813994667673 -5.719251902735031 3.600187459510805 -0.43974197643638874 0.07438878239679317 -8.114984853859378 0.0007848636593212597 0.008155400304177813 44.557564360314366 -0.03142456415993069 -0.04671099415584592 44.5452811062367 12.483166432259548 -0.04839622637009537 -0.02074692110986608 -0.036107198609266575 0.04737851235097861 -0.023804548387643183 0.021374676737534043 0.010137061002318934 0.028536881355391078 11.105826126051573 -0.0475545329496941 -0.027170520029157184 -0.030216713588706586 -0.012752710774977237 -0.032704411285594225 -0.00011940019415289414 0.026514823009205987 0.03744583801226541 4.754970779133486 0.013229042918758763 -0.01075361696824972 -0.04499983637303256 0.04573204146313212 0.010216383195702724 0.011772986317433459 0.028595907928666325 -0.011258455545332419 -5.601247180945674 0.006067389105873906 0.002653335618404087 -6.765181691278608 -0.0005137633840425959 0.022989699179065536 -6.749609032140392 0.03032248162854071 0.02370240121560032 0.011708662547777087 -0.02558698645204352 -0.04331904445475185 8.091261946769508 3.4916044835306366 -19.217558634125957 -0.012649656130640858 10.415974404203812 -0.006571957939089237 -5.582799970215745 -15.663977627679838 3.1559150983130326 -0.04708824151888461 0.04136038114040612 -0.029900630459099097 -0.03780292659479028 4.666333021466246 0.02341936691292403 12.47462431787014 -8.221246638005084 6.912597466057799 -0.02868234814898338 46.365597197801804 0.018786166097403436 -4.345923190758058 -14.766611952046356 -3.816966045984851 0.019222328707904777 -0.028411958003984886 0.036670875744306705 -0.009304564908539101 -10.760288334569903 0.0020498290014363376 
